<svg xmlns="http://www.w3.org/2000/svg" viewBox="0 0 256 256" width="256" height="256" fill="none"><defs><linearGradient id="devl-top" x1="0" y1="0" x2="1" y2="1"><stop offset="0" stop-color="#bdf8ef" stop-opacity="1"/><stop offset="1" stop-color="#2dd4bf" stop-opacity="1"/></linearGradient><linearGradient id="devl-left" x1="0" y1="0" x2="0" y2="1"><stop offset="0" stop-color="#2dd4bf" stop-opacity="1"/><stop offset="1" stop-color="#0f766e" stop-opacity="1"/></linearGradient><linearGradient id="devl-right" x1="0" y1="0" x2="0" y2="1"><stop offset="0" stop-color="#0f766e" stop-opacity="1"/><stop offset="1" stop-color="#0c3b38" stop-opacity="1"/></linearGradient><linearGradient id="devl-spec" x1="0" y1="0" x2="1" y2="1"><stop offset="0" stop-color="#ffffff" stop-opacity="0.55"/><stop offset="1" stop-color="#ffffff" stop-opacity="0"/></linearGradient><linearGradient id="devl-ptop" x1="0" y1="0" x2="1" y2="1"><stop offset="0" stop-color="#ffffff" stop-opacity="1"/><stop offset="1" stop-color="#e2e8f0" stop-opacity="1"/></linearGradient><linearGradient id="devl-pleft" x1="0" y1="0" x2="0" y2="1"><stop offset="0" stop-color="#cbd5e1" stop-opacity="1"/><stop offset="1" stop-color="#94a3b8" stop-opacity="1"/></linearGradient><linearGradient id="devl-pright" x1="0" y1="0" x2="0" y2="1"><stop offset="0" stop-color="#94a3b8" stop-opacity="1"/><stop offset="1" stop-color="#64748b" stop-opacity="1"/></linearGradient><radialGradient id="devl-halo" cx=".5" cy=".5" r=".5"><stop offset="0" stop-color="#14b8a6" stop-opacity="0.22"/><stop offset="1" stop-color="#14b8a6" stop-opacity="0"/></radialGradient><radialGradient id="devl-orb" cx=".35" cy=".3" r=".75"><stop offset="0" stop-color="#ffffff"/><stop offset=".35" stop-color="#e7e0ff"/><stop offset=".75" stop-color="#a78bfa"/><stop offset="1" stop-color="#6d28d9"/></radialGradient><filter id="devl-blur" x="-50%" y="-50%" width="200%" height="200%"><feGaussianBlur stdDeviation="6"/></filter><filter id="devl-soft" x="-50%" y="-50%" width="200%" height="200%"><feGaussianBlur stdDeviation="2.2"/></filter></defs><ellipse cx="128" cy="176.0" rx="124" ry="54" fill="url(#devl-halo)"/><polygon points="38.9,156.8 128.0,208.2 128.0,197.4 38.9,146.0" fill="url(#devl-pleft)"/><polygon points="217.1,156.8 128.0,208.2 128.0,197.4 217.1,146.0" fill="url(#devl-pright)"/><polygon points="128.0,94.5 217.1,146.0 128.0,197.4 38.9,146.0" fill="url(#devl-ptop)"/><polyline points="38.9,146.0 128.0,197.4 217.1,146.0" fill="none" stroke="#ffffff" stroke-opacity="0.5" stroke-width="1.4" stroke-linejoin="round"/><polyline points="38.9,146.0 128.0,197.4 217.1,146.0" fill="none" stroke="#14b8a6" stroke-width="1.6" stroke-opacity=".75" stroke-linejoin="round"/><ellipse cx="128.0" cy="150.9" rx="54" ry="21" fill="#0f766e" opacity="0.45" filter="url(#devl-soft)"/><polygon points="60.1,143.6 85.6,158.2 85.6,136.2 60.1,121.5" fill="url(#devl-left)"/><polygon points="111.0,143.6 85.6,158.2 85.6,136.2 111.0,121.5" fill="url(#devl-right)"/><polygon points="85.6,106.8 111.0,121.5 85.6,136.2 60.1,121.5" fill="url(#devl-top)"/><polyline points="60.1,121.5 85.6,136.2 111.0,121.5" fill="none" stroke="#ffffff" stroke-opacity="0.9" stroke-width="1.4" stroke-linejoin="round"/><polygon points="100.4,149.7 125.9,164.4 125.9,122.7 100.4,108.0" fill="url(#devl-left)"/><polygon points="151.3,149.7 125.9,164.4 125.9,122.7 151.3,108.0" fill="url(#devl-right)"/><polygon points="125.9,93.3 151.3,108.0 125.9,122.7 100.4,108.0" fill="url(#devl-top)"/><polyline points="100.4,108.0 125.9,122.7 151.3,108.0" fill="none" stroke="#ffffff" stroke-opacity="0.9" stroke-width="1.4" stroke-linejoin="round"/><polygon points="140.7,155.8 166.2,170.5 166.2,106.8 140.7,92.1" fill="url(#devl-left)"/><polygon points="191.7,155.8 166.2,170.5 166.2,106.8 191.7,92.1" fill="url(#devl-right)"/><polygon points="166.2,77.4 191.7,92.1 166.2,106.8 140.7,92.1" fill="url(#devl-top)"/><polyline points="140.7,92.1 166.2,106.8 191.7,92.1" fill="none" stroke="#ffffff" stroke-opacity="0.9" stroke-width="1.4" stroke-linejoin="round"/><polygon points="166.2,82.3 172.1,94.5 160.3,94.5" fill="#fff"/><line x1="166.2" y1="89.2" x2="166.2" y2="100.9" stroke="#fff" stroke-width="4" stroke-linecap="round"/><circle cx="125.9" cy="41.9" r="11.4" fill="#8b5cf6" opacity=".35" filter="url(#devl-blur)"/><circle cx="125.9" cy="41.9" r="6.0" fill="url(#devl-orb)"/><ellipse cx="124.0" cy="39.6" rx="1.9" ry="1.1" fill="#fff" opacity=".85" transform="rotate(-30 124.0 39.6)"/></svg>
