<svg xmlns="http://www.w3.org/2000/svg" viewBox="0 0 256 256" width="256" height="256" fill="none" xmlns:c2pa="http://c2pa.org/manifest"><metadata><c2pa:manifest>AAAWgmp1bWIAAAAeanVtZGMycGEAEQAQgAAAqgA4m3EDYzJwYQAAABZcanVtYgAAAEdqdW1kYzJtYQARABCAAACqADibcQN1cm46YzJwYTozNjUyYTk2ZS1lYmM5LTRiYmUtYWJjMi1iMzczOTMzNTdjYjEAAAADl2p1bWIAAAApanVtZGMyYXMAEQAQgAAAqgA4m3EDYzJwYS5hc3NlcnRpb25zAAAAALxqdW1iAAAARGp1bWRjYm9yABEAEIAAAKoAOJtxE2MycGEuaW5ncmVkaWVudC52MwAAAAAYYzJzaCpBzrV5WAeFSmNpmwB9Hi0AAABwY2JvcqNpZGM6Zm9ybWF0bWltYWdlL3N2Zyt4bWxqaW5zdGFuY2VJRHgseG1wOmlpZDoxYzkzZjhiYi05ZTZhLTRiMzgtOTQ1OC01M2Q4YzFmNmQwZmNscmVsYXRpb25zaGlwaHBhcmVudE9mAAAB4mp1bWIAAABBanVtZGNib3IAEQAQgAAAqgA4m3ETYzJwYS5hY3Rpb25zLnYyAAAAABhjMnNoJt9Ha76It07DSDKEb7QOqgAAAZljYm9yomdhY3Rpb25zgqJmYWN0aW9ua2MycGEub3BlbmVkanBhcmFtZXRlcnOha2luZ3JlZGllbnRzgaJjdXJseC1zZWxmI2p1bWJmPWMycGEuYXNzZXJ0aW9ucy9jMnBhLmluZ3JlZGllbnQudjNkaGFzaFgg2uMBe5aO6Q8yJ3Fg0IuV8uLU/aEIl37X/MMJ1sShe3CkZmFjdGlvbngdY29tLmFudGhyb3BpYy5jbGF1ZGUucHJvdmlkZWRqcGFyYW1ldGVyc6F4H2NvbS5hbnRocm9waWMub3JpZ2luLWNvbmZpZGVuY2VndW5rbm93bmtkZXNjcmlwdGlvbnhmQ2xhdWRlIHByb3ZpZGVkIHRoaXMgZmlsZSBhdCB0aGUgcmVxdWVzdCBvZiBhIHVzZXIgYW5kIG1heSBoYXZlIGNyZWF0ZWQgb3IgbW9kaWZpZWQgdGhlIGZpbGUgY29udGVudHMubXNvZnR3YXJlQWdlbnShZG5hbWVmQ2xhdWRlcmFsbEFjdGlvbnNJbmNsdWRlZPUAAADIanVtYgAAAEBqdW1kY2JvcgARABCAAACqADibcRNjMnBhLmhhc2guZGF0YQAAAAAYYzJzaAXjMTY/0nNWQk5KlL0H5o4AAACAY2JvcqVjYWxnZnNoYTI1NmNwYWRNAAAAAAAAAAAAAAAAAGRoYXNoWCDARTyq1rACtgR3vjqzwq7hxJYkJRJW1iDuZkqtdAKnxWRuYW1lbmp1bWJmIG1hbmlmZXN0amV4Y2x1c2lvbnOBomVzdGFydBiiZmxlbmd0aBkeBAAAAj5qdW1iAAAAJ2p1bWRjMmNsABEAEIAAAKoAOJtxA2MycGEuY2xhaW0udjIAAAACD2Nib3KlY2FsZ2ZzaGEyNTZpc2lnbmF0dXJleE1zZWxmI2p1bWJmPS9jMnBhL3VybjpjMnBhOjM2NTJhOTZlLWViYzktNGJiZS1hYmMyLWIzNzM5MzM1N2NiMS9jMnBhLnNpZ25hdHVyZWppbnN0YW5jZUlEeCx4bXA6aWlkOjVlYzFjNWQyLWU1NGQtNGQ1ZS05OTJmLTI4MTU1NjMzOTJhY3JjcmVhdGVkX2Fzc2VydGlvbnODomN1cmx4LXNlbGYjanVtYmY9YzJwYS5hc3NlcnRpb25zL2MycGEuaW5ncmVkaWVudC52M2RoYXNoWCDa4wF7lo7pDzIncWDQi5Xy4tT9oQiXftf8wwnWxKF7cKJjdXJseCpzZWxmI2p1bWJmPWMycGEuYXNzZXJ0aW9ucy9jMnBhLmFjdGlvbnMudjJkaGFzaFggpCwuQ8g1kEaKwTdwvRM9x4heBphMWlM9TB2hoiKk1ZWiY3VybHgpc2VsZiNqdW1iZj1jMnBhLmFzc2VydGlvbnMvYzJwYS5oYXNoLmRhdGFkaGFzaFggU0Y2nFuunW0ET60q15NsKdzdqb+JHDNeNnXhSmmG1jl0Y2xhaW1fZ2VuZXJhdG9yX2luZm+jZG5hbWVvQW50aHJvcGljIEZpbGVzZ3ZlcnNpb25lMS4wLjBrc3BlY1ZlcnNpb25lMi40LjAAABA4anVtYgAAAChqdW1kYzJjcwARABCAAACqADibcQNjMnBhLnNpZ25hdHVyZQAAABAIY2JvctKEWQISogEmGCFZAgowggIGMIIBjaADAgECAhRA5aAK7sI50L64g/oGQgU9Z1UTADAKBggqhkjOPQQDAzBJMRcwFQYDVQQKEw5BbnRocm9waWMsIFBCQzEuMCwGA1UEAxMlQW50aHJvcGljIENvbnRlbnQgQ3JlZGVudGlhbHMgUm9vdCBDQTAeFw0yNjA4MDcxODQzNTZaFw0yODA4MDYxOTQzNTZaMEQxFzAVBgNVBAoTDkFudGhyb3BpYywgUEJDMSkwJwYDVQQDEyBBbnRocm9waWMgQ2xhdWRlIENvbnRlbnQgU2lnbmluZzBZMBMGByqGSM49AgEGCCqGSM49AwEHA0IABJh6CmvLUBgFFNU0vUKlOVtE6djd17L5SuwX0LemFisBM3dkd/3cyjxFA3Qo5S46fX0/ihY0VZ7mfb9KF703t5OjWDBWMA4GA1UdDwEB/wQEAwIHgDAVBgNVHSUEDjAMBgorBgEEAYPoXgIBMAwGA1UdEwEB/wQCMAAwHwYDVR0jBBgwFoAUzlHiBIFOZFsj+OPEz5o+nMHXXMIwCgYIKoZIzj0EAwMDZwAwZAIwMXMdFJ4BetLLVY7ORuE9noqbbAZOZn/aArXyTwFAZfKrPzxF2vPoJNf1+UCdg1XGAjBwX1zd9WGqYkqmL5SFqw1QySjr1zJfpJM9+1rdDwSPLMOPOjKuiXjoU/pUUeG9RwmhY3BhZFkNngAAAAAAAAAAAAAAAAAAAAAAAAAAAAAAAAAAAAAAAAAAAAAAAAAAAAAAAAAAAAAAAAAAAAAAAAAAAAAAAAAAAAAAAAAAAAAAAAAAAAAAAAAAAAAAAAAAAAAAAAAAAAAAAAAAAAAAAAAAAAAAAAAAAAAAAAAAAAAAAAAAAAAAAAAAAAAAAAAAAAAAAAAAAAAAAAAAAAAAAAAAAAAAAAAAAAAAAAAAAAAAAAAAAAAAAAAAAAAAAAAAAAAAAAAAAAAAAAAAAAAAAAAAAAAAAAAAAAAAAAAAAAAAAAAAAAAAAAAAAAAAAAAAAAAAAAAAAAAAAAAAAAAAAAAAAAAAAAAAAAAAAAAAAAAAAAAAAAAAAAAAAAAAAAAAAAAAAAAAAAAAAAAAAAAAAAAAAAAAAAAAAAAAAAAAAAAAAAAAAAAAAAAAAAAAAAAAAAAAAAAAAAAAAAAAAAAAAAAAAAAAAAAAAAAAAAAAAAAAAAAAAAAAAAAAAAAAAAAAAAAAAAAAAAAAAAAAAAAAAAAAAAAAAAAAAAAAAAAAAAAAAAAAAAAAAAAAAAAAAAAAAAAAAAAAAAAAAAAAAAAAAAAAAAAAAAAAAAAAAAAAAAAAAAAAAAAAAAAAAAAAAAAAAAAAAAAAAAAAAAAAAAAAAAAAAAAAAAAAAAAAAAAAAAAAAAAAAAAAAAAAAAAAAAAAAAAAAAAAAAAAAAAAAAAAAAAAAAAAAAAAAAAAAAAAAAAAAAAAAAAAAAAAAAAAAAAAAAAAAAAAAAAAAAAAAAAAAAAAAAAAAAAAAAAAAAAAAAAAAAAAAAAAAAAAAAAAAAAAAAAAAAAAAAAAAAAAAAAAAAAAAAAAAAAAAAAAAAAAAAAAAAAAAAAAAAAAAAAAAAAAAAAAAAAAAAAAAAAAAAAAAAAAAAAAAAAAAAAAAAAAAAAAAAAAAAAAAAAAAAAAAAAAAAAAAAAAAAAAAAAAAAAAAAAAAAAAAAAAAAAAAAAAAAAAAAAAAAAAAAAAAAAAAAAAAAAAAAAAAAAAAAAAAAAAAAAAAAAAAAAAAAAAAAAAAAAAAAAAAAAAAAAAAAAAAAAAAAAAAAAAAAAAAAAAAAAAAAAAAAAAAAAAAAAAAAAAAAAAAAAAAAAAAAAAAAAAAAAAAAAAAAAAAAAAAAAAAAAAAAAAAAAAAAAAAAAAAAAAAAAAAAAAAAAAAAAAAAAAAAAAAAAAAAAAAAAAAAAAAAAAAAAAAAAAAAAAAAAAAAAAAAAAAAAAAAAAAAAAAAAAAAAAAAAAAAAAAAAAAAAAAAAAAAAAAAAAAAAAAAAAAAAAAAAAAAAAAAAAAAAAAAAAAAAAAAAAAAAAAAAAAAAAAAAAAAAAAAAAAAAAAAAAAAAAAAAAAAAAAAAAAAAAAAAAAAAAAAAAAAAAAAAAAAAAAAAAAAAAAAAAAAAAAAAAAAAAAAAAAAAAAAAAAAAAAAAAAAAAAAAAAAAAAAAAAAAAAAAAAAAAAAAAAAAAAAAAAAAAAAAAAAAAAAAAAAAAAAAAAAAAAAAAAAAAAAAAAAAAAAAAAAAAAAAAAAAAAAAAAAAAAAAAAAAAAAAAAAAAAAAAAAAAAAAAAAAAAAAAAAAAAAAAAAAAAAAAAAAAAAAAAAAAAAAAAAAAAAAAAAAAAAAAAAAAAAAAAAAAAAAAAAAAAAAAAAAAAAAAAAAAAAAAAAAAAAAAAAAAAAAAAAAAAAAAAAAAAAAAAAAAAAAAAAAAAAAAAAAAAAAAAAAAAAAAAAAAAAAAAAAAAAAAAAAAAAAAAAAAAAAAAAAAAAAAAAAAAAAAAAAAAAAAAAAAAAAAAAAAAAAAAAAAAAAAAAAAAAAAAAAAAAAAAAAAAAAAAAAAAAAAAAAAAAAAAAAAAAAAAAAAAAAAAAAAAAAAAAAAAAAAAAAAAAAAAAAAAAAAAAAAAAAAAAAAAAAAAAAAAAAAAAAAAAAAAAAAAAAAAAAAAAAAAAAAAAAAAAAAAAAAAAAAAAAAAAAAAAAAAAAAAAAAAAAAAAAAAAAAAAAAAAAAAAAAAAAAAAAAAAAAAAAAAAAAAAAAAAAAAAAAAAAAAAAAAAAAAAAAAAAAAAAAAAAAAAAAAAAAAAAAAAAAAAAAAAAAAAAAAAAAAAAAAAAAAAAAAAAAAAAAAAAAAAAAAAAAAAAAAAAAAAAAAAAAAAAAAAAAAAAAAAAAAAAAAAAAAAAAAAAAAAAAAAAAAAAAAAAAAAAAAAAAAAAAAAAAAAAAAAAAAAAAAAAAAAAAAAAAAAAAAAAAAAAAAAAAAAAAAAAAAAAAAAAAAAAAAAAAAAAAAAAAAAAAAAAAAAAAAAAAAAAAAAAAAAAAAAAAAAAAAAAAAAAAAAAAAAAAAAAAAAAAAAAAAAAAAAAAAAAAAAAAAAAAAAAAAAAAAAAAAAAAAAAAAAAAAAAAAAAAAAAAAAAAAAAAAAAAAAAAAAAAAAAAAAAAAAAAAAAAAAAAAAAAAAAAAAAAAAAAAAAAAAAAAAAAAAAAAAAAAAAAAAAAAAAAAAAAAAAAAAAAAAAAAAAAAAAAAAAAAAAAAAAAAAAAAAAAAAAAAAAAAAAAAAAAAAAAAAAAAAAAAAAAAAAAAAAAAAAAAAAAAAAAAAAAAAAAAAAAAAAAAAAAAAAAAAAAAAAAAAAAAAAAAAAAAAAAAAAAAAAAAAAAAAAAAAAAAAAAAAAAAAAAAAAAAAAAAAAAAAAAAAAAAAAAAAAAAAAAAAAAAAAAAAAAAAAAAAAAAAAAAAAAAAAAAAAAAAAAAAAAAAAAAAAAAAAAAAAAAAAAAAAAAAAAAAAAAAAAAAAAAAAAAAAAAAAAAAAAAAAAAAAAAAAAAAAAAAAAAAAAAAAAAAAAAAAAAAAAAAAAAAAAAAAAAAAAAAAAAAAAAAAAAAAAAAAAAAAAAAAAAAAAAAAAAAAAAAAAAAAAAAAAAAAAAAAAAAAAAAAAAAAAAAAAAAAAAAAAAAAAAAAAAAAAAAAAAAAAAAAAAAAAAAAAAAAAAAAAAAAAAAAAAAAAAAAAAAAAAAAAAAAAAAAAAAAAAAAAAAAAAAAAAAAAAAAAAAAAAAAAAAAAAAAAAAAAAAAAAAAAAAAAAAAAAAAAAAAAAAAAAAAAAAAAAAAAAAAAAAAAAAAAAAAAAAAAAAAAAAAAAAAAAAAAAAAAAAAAAAAAAAAAAAAAAAAAAAAAAAAAAAAAAAAAAAAAAAAAAAAAAAAAAAAAAAAAAAAAAAAAAAAAAAAAAAAAAAAAAAAAAAAAAAAAAAAAAAAAAAAAAAAAAAAAAAAAAAAAAAAAAAAAAAAAAAAAAAAAAAAAAAAAAAAAAAAAAAAAAAAAAAAAAAAAAAAAAAAAAAAAAAAAAAAAAAAAAAAAAAAAAAAAAAAAAAAAAAAAAAAAAAAAAAAAAAAAAAAAAAAAAAAAAAAAAAAAAAAAAAAAAAAAAAAAAAAAAAAAAAAAAAAAAAAAAAAAAAAAAAAAAAAAAAAAAAAAAAAAAAAAAAAAAAAAAAAAAAAAAAAAAAAAAAAAAAAAAAAAAAAAAAAAAAAAAAAAAAAAAAAAAAAAAAAAAAAAAAAAAAAAAAAAAAAAAAAAAAAAAAAAAAAAAAAAAAAAAAAAAAAAAAAAAAAAAAAAAAAAAAAAAAAAAAAAAAAAAAAAAAAAAAAAAAAAAAAAAAAAAAAAAAAAAAAAAAAAAAAAAAAAAAAAAAAAAAAAAAAAAAAAAAAAAAAAAAAAAAAAAAAAAAAAAAAAAAAAAAAAAAAAAAAAAAAAAAAAAAAAAAAAAAAAAAAAAAAAAAAAAAAAAAAAAAAAAAAAAAAAAAAAAAAAAAAAAAAAAAAAAAAAAAAAAAAAAAAAAAAAAAAAAAAAAAAAAAAAAAAAAAAAAAAAAAAAAAAAAAAAAAAAAAAAAAAAAAAAAAAAAAAAAAAAAAAAAAAAAAAAAAAAAAAAAAAAAAAAAAAAAAAAAAAAAAAAAAAAAAAAAAAAAAAAAAAAAAAAAAAAAAAAAAAAAAAAAAAAAAAAAAAAAAAAAAAAAAAAAAAAAAAAAAAAAAAAAAAAAAAAAAAAAAAAAAAAAAAAAAAAAAAAAAAAAAAAAAAAAAAAAAAAAAAAAAAAAAAAAAAAAAAAAAAAAAAAAAAAAAAAAAAAAAAAAAAAAAAAAAAAAAAAAAAAAAAAAAAAAAAAAAAAAAAAAAAAAAAAAAAAAAAAAAAAAAAAAAAAAAAAAAAAAAAAAAAAAAAAAAAAAAAAAAAAAAAAAAAAAAAAAAAAAAAAAAAAAAAAAAAAAAAAAAAAAAAAAAAAAAAAAAAAAAAAAAAAAAAAAAAAAAAAAAAAAAAAAAAAAAAAAAAAAAAAAAAAAAAAAAAAAAAAAAAAAAAAAAAAAAAAAAAAAAAAAAAAAAAAAAAAAAAAAAAAAAAAAAAAAAAAAAAAAAAAAAAAAAAAAAAAAAAAAAAAAAAAAAAAAAAAAAAAAAAAAAAAAAAAAAAAAAAAAAAAAAAAAAAAAAAAAAAAAAAAAAAAAAAAAAAAAAAAAAAAAAAAAAAAAAAAAAAAAAAAAAAAAAAAAAAAAAAAAAAAAAAAAAAAAAAAAAAAAAAAAAAAAAAAAAAAAAAAAAAAAAAAAAAAAAAAAAAAAAAAAAAAAAAAAAAAAAAAAAAAAAAAAAAAAAAAAAAAAPZYQOq0SnSqBZN7tuma5cHTIVWggabRB7wkvkKUhJZHIV4sFoC+TpSS9twFF/ihJbhlY3WQJLNjJrFjvmAiS/1F0So=</c2pa:manifest></metadata>
<defs>
<linearGradient id="ll-top" x1="0" y1="0" x2="1" y2="1"><stop offset="0" stop-color="#a5f3fc"></stop><stop offset="1" stop-color="#22d3ee"></stop></linearGradient>
<linearGradient id="ll-face" x1="0" y1="0" x2="0" y2="1"><stop offset="0" stop-color="#22d3ee"></stop><stop offset="1" stop-color="#0b6f85"></stop></linearGradient>
<linearGradient id="ll-side" x1="0" y1="0" x2="0" y2="1"><stop offset="0" stop-color="#0b6f85"></stop><stop offset="1" stop-color="#052e3a"></stop></linearGradient>
<linearGradient id="ll-vio" x1="0" y1="0" x2="1" y2="1"><stop offset="0" stop-color="#c4b5fd"></stop><stop offset="1" stop-color="#8b5cf6"></stop></linearGradient>
<radialGradient id="ll-glow" cx="0.5" cy="0.5" r="0.5"><stop offset="0" stop-color="#22d3ee" stop-opacity="0.4"></stop><stop offset="1" stop-color="#22d3ee" stop-opacity="0"></stop></radialGradient>
</defs>
<circle cx="128" cy="128" r="118" fill="url(#ll-glow)"></circle>
<g transform="translate(128,128) scale(0.8) translate(-128.0,-133.0)">
<g transform="translate(16.00,9.60)"><path d="M40 44h160a30 30 0 0 1 30 30v72a30 30 0 0 1-30 30H108l-40 30 6-30H40a30 30 0 0 1-30-30V74a30 30 0 0 1 30-30z" fill="#052e3a"></path></g><g transform="translate(15.00,9.00)"><path d="M40 44h160a30 30 0 0 1 30 30v72a30 30 0 0 1-30 30H108l-40 30 6-30H40a30 30 0 0 1-30-30V74a30 30 0 0 1 30-30z" fill="#052e3a"></path></g><g transform="translate(14.00,8.40)"><path d="M40 44h160a30 30 0 0 1 30 30v72a30 30 0 0 1-30 30H108l-40 30 6-30H40a30 30 0 0 1-30-30V74a30 30 0 0 1 30-30z" fill="#052e3a"></path></g><g transform="translate(13.00,7.80)"><path d="M40 44h160a30 30 0 0 1 30 30v72a30 30 0 0 1-30 30H108l-40 30 6-30H40a30 30 0 0 1-30-30V74a30 30 0 0 1 30-30z" fill="#052e3a"></path></g><g transform="translate(12.00,7.20)"><path d="M40 44h160a30 30 0 0 1 30 30v72a30 30 0 0 1-30 30H108l-40 30 6-30H40a30 30 0 0 1-30-30V74a30 30 0 0 1 30-30z" fill="#052e3a"></path></g><g transform="translate(11.00,6.60)"><path d="M40 44h160a30 30 0 0 1 30 30v72a30 30 0 0 1-30 30H108l-40 30 6-30H40a30 30 0 0 1-30-30V74a30 30 0 0 1 30-30z" fill="#052e3a"></path></g><g transform="translate(10.00,6.00)"><path d="M40 44h160a30 30 0 0 1 30 30v72a30 30 0 0 1-30 30H108l-40 30 6-30H40a30 30 0 0 1-30-30V74a30 30 0 0 1 30-30z" fill="#052e3a"></path></g><g transform="translate(9.00,5.40)"><path d="M40 44h160a30 30 0 0 1 30 30v72a30 30 0 0 1-30 30H108l-40 30 6-30H40a30 30 0 0 1-30-30V74a30 30 0 0 1 30-30z" fill="#052e3a"></path></g><g transform="translate(8.00,4.80)"><path d="M40 44h160a30 30 0 0 1 30 30v72a30 30 0 0 1-30 30H108l-40 30 6-30H40a30 30 0 0 1-30-30V74a30 30 0 0 1 30-30z" fill="#052e3a"></path></g><g transform="translate(7.00,4.20)"><path d="M40 44h160a30 30 0 0 1 30 30v72a30 30 0 0 1-30 30H108l-40 30 6-30H40a30 30 0 0 1-30-30V74a30 30 0 0 1 30-30z" fill="#052e3a"></path></g><g transform="translate(6.00,3.60)"><path d="M40 44h160a30 30 0 0 1 30 30v72a30 30 0 0 1-30 30H108l-40 30 6-30H40a30 30 0 0 1-30-30V74a30 30 0 0 1 30-30z" fill="#052e3a"></path></g><g transform="translate(5.00,3.00)"><path d="M40 44h160a30 30 0 0 1 30 30v72a30 30 0 0 1-30 30H108l-40 30 6-30H40a30 30 0 0 1-30-30V74a30 30 0 0 1 30-30z" fill="#052e3a"></path></g><g transform="translate(4.00,2.40)"><path d="M40 44h160a30 30 0 0 1 30 30v72a30 30 0 0 1-30 30H108l-40 30 6-30H40a30 30 0 0 1-30-30V74a30 30 0 0 1 30-30z" fill="#052e3a"></path></g><g transform="translate(3.00,1.80)"><path d="M40 44h160a30 30 0 0 1 30 30v72a30 30 0 0 1-30 30H108l-40 30 6-30H40a30 30 0 0 1-30-30V74a30 30 0 0 1 30-30z" fill="#052e3a"></path></g><g transform="translate(2.00,1.20)"><path d="M40 44h160a30 30 0 0 1 30 30v72a30 30 0 0 1-30 30H108l-40 30 6-30H40a30 30 0 0 1-30-30V74a30 30 0 0 1 30-30z" fill="#052e3a"></path></g><g transform="translate(1.00,0.60)"><path d="M40 44h160a30 30 0 0 1 30 30v72a30 30 0 0 1-30 30H108l-40 30 6-30H40a30 30 0 0 1-30-30V74a30 30 0 0 1 30-30z" fill="#052e3a"></path></g>
<path d="M40 44h160a30 30 0 0 1 30 30v72a30 30 0 0 1-30 30H108l-40 30 6-30H40a30 30 0 0 1-30-30V74a30 30 0 0 1 30-30z" fill="url(#ll-face)"></path>
<g fill="#a5f3fc"><rect x="34" y="72" width="130" height="13" rx="6.5"></rect><rect x="34" y="97" width="96" height="13" rx="6.5" opacity="0.8"></rect><rect x="34" y="122" width="116" height="13" rx="6.5" opacity="0.6"></rect></g>
<circle cx="204" cy="82" r="13" fill="url(#ll-vio)"></circle>
</g>
</svg>